<svg id="visual" viewBox="0 0 900 600" width="900" height="600" xmlns="http://www.w3.org/2000/svg" xmlns:xlink="http://www.w3.org/1999/xlink" version="1.1"><path d="M511 600L503 600L503 514L575 514L575 429L588 429L588 343L512 343L512 257L579 257L579 171L510 171L510 86L491 86L491 0L900 0L900 86L900 86L900 171L900 171L900 257L900 257L900 343L900 343L900 429L900 429L900 514L900 514L900 600L900 600Z" fill="#608fb7"></path><path d="M689 600L589 600L589 514L600 514L600 429L587 429L587 343L584 343L584 257L712 257L712 171L596 171L596 86L580 86L580 0L900 0L900 86L900 86L900 171L900 171L900 257L900 257L900 343L900 343L900 429L900 429L900 514L900 514L900 600L900 600Z" fill="#364f6b"></path><path d="M721 600L789 600L789 514L749 514L749 429L839 429L839 343L690 343L690 257L832 257L832 171L795 171L795 86L789 86L789 0L900 0L900 86L900 86L900 171L900 171L900 257L900 257L900 343L900 343L900 429L900 429L900 514L900 514L900 600L900 600Z" fill="#0d1828"></path></svg>